<svg xmlns="http://www.w3.org/2000/svg" xmlns:xlink="http://www.w3.org/1999/xlink" contentStyleType="text/css" height="656px" preserveAspectRatio="none" style="width:1953px;height:656px;background:#FFFFFF;" version="1.1" viewBox="0 0 1953 656" width="1953px" zoomAndPan="magnify"><title>Sequence Diagram: Trail Status Inquiry</title><defs/><g><text fill="#000000" font-family="sans-serif" font-size="14" font-weight="bold" lengthAdjust="spacing" textLength="311.4521" x="821.9648" y="27.9951">Sequence Diagram: Trail Status Inquiry</text><rect fill="#FFFFFF" height="424.6641" style="stroke:#181818;stroke-width:1;" width="10" x="469.1279" y="135.7266"/><rect fill="#FFFFFF" height="366.3984" style="stroke:#181818;stroke-width:1;" width="10" x="723.9565" y="164.8594"/><rect fill="#FFFFFF" height="308.1328" style="stroke:#181818;stroke-width:1;" width="10" x="1027.7363" y="193.9922"/><rect fill="#FFFFFF" height="249.8672" style="stroke:#181818;stroke-width:1;" width="10" x="1375.1665" y="223.125"/><rect fill="#FFFFFF" height="29.1328" style="stroke:#181818;stroke-width:1;" width="10" x="1852.8926" y="349.4609"/><rect fill="none" height="177.6016" style="stroke:#000000;stroke-width:1.5;" width="673.1582" x="1273.2236" y="267.2578"/><line style="stroke:#181818;stroke-width:0.5;stroke-dasharray:5.0,5.0;" x1="80" x2="80" y1="104.5938" y2="578.3906"/><line style="stroke:#181818;stroke-width:0.5;stroke-dasharray:5.0,5.0;" x1="473.1763" x2="473.1763" y1="104.5938" y2="578.3906"/><line style="stroke:#181818;stroke-width:0.5;stroke-dasharray:5.0,5.0;" x1="728.3027" x2="728.3027" y1="104.5938" y2="578.3906"/><line style="stroke:#181818;stroke-width:0.5;stroke-dasharray:5.0,5.0;" x1="1031.8306" x2="1031.8306" y1="104.5938" y2="578.3906"/><line style="stroke:#181818;stroke-width:0.5;stroke-dasharray:5.0,5.0;" x1="1379.2236" x2="1379.2236" y1="104.5938" y2="578.3906"/><line style="stroke:#181818;stroke-width:0.5;stroke-dasharray:5.0,5.0;" x1="1689.123" x2="1689.123" y1="104.5938" y2="578.3906"/><line style="stroke:#181818;stroke-width:0.5;stroke-dasharray:5.0,5.0;" x1="1857.4033" x2="1857.4033" y1="104.5938" y2="578.3906"/><rect fill="#E2E2F0" height="30.2969" rx="2.5" ry="2.5" style="stroke:#181818;stroke-width:0.5;" width="150.3223" x="5" y="73.2969"/><text fill="#000000" font-family="sans-serif" font-size="14" lengthAdjust="spacing" textLength="136.3223" x="12" y="93.292">Forest Service User</text><rect fill="#E2E2F0" height="30.2969" rx="2.5" ry="2.5" style="stroke:#181818;stroke-width:0.5;" width="150.3223" x="5" y="577.3906"/><text fill="#000000" font-family="sans-serif" font-size="14" lengthAdjust="spacing" textLength="136.3223" x="12" y="597.3857">Forest Service User</text><text fill="#000000" font-family="sans-serif" font-size="14" lengthAdjust="spacing" textLength="171.9033" x="385.1763" y="101.292">User Interface Container</text><path d="M453.6279,60.2969 L453.6279,84.2969 M453.6279,72.2969 L470.6279,72.2969 " fill="none" style="stroke:#181818;stroke-width:0.5;"/><ellipse cx="482.6279" cy="72.2969" fill="#E2E2F0" rx="12" ry="12" style="stroke:#181818;stroke-width:0.5;"/><text fill="#000000" font-family="sans-serif" font-size="14" lengthAdjust="spacing" textLength="171.9033" x="385.1763" y="590.3857">User Interface Container</text><path d="M453.6279,597.6875 L453.6279,621.6875 M453.6279,609.6875 L470.6279,609.6875 " fill="none" style="stroke:#181818;stroke-width:0.5;"/><ellipse cx="482.6279" cy="609.6875" fill="#E2E2F0" rx="12" ry="12" style="stroke:#181818;stroke-width:0.5;"/><text fill="#000000" font-family="sans-serif" font-size="14" lengthAdjust="spacing" textLength="161.3076" x="645.3027" y="101.292">API Gateway Container</text><ellipse cx="728.9565" cy="72.2969" fill="#E2E2F0" rx="12" ry="12" style="stroke:#181818;stroke-width:0.5;"/><polygon fill="#181818" points="724.9565,60.2969,730.9565,55.2969,728.9565,60.2969,730.9565,65.2969,724.9565,60.2969" style="stroke:#181818;stroke-width:1;"/><text fill="#000000" font-family="sans-serif" font-size="14" lengthAdjust="spacing" textLength="161.3076" x="645.3027" y="590.3857">API Gateway Container</text><ellipse cx="728.9565" cy="609.6875" fill="#E2E2F0" rx="12" ry="12" style="stroke:#181818;stroke-width:0.5;"/><polygon fill="#181818" points="724.9565,597.6875,730.9565,592.6875,728.9565,597.6875,730.9565,602.6875,724.9565,597.6875" style="stroke:#181818;stroke-width:1;"/><text fill="#000000" font-family="sans-serif" font-size="14" lengthAdjust="spacing" textLength="169.8115" x="944.8306" y="101.292">Chatbot Logic Container</text><ellipse cx="1032.7363" cy="72.2969" fill="#E2E2F0" rx="12" ry="12" style="stroke:#181818;stroke-width:0.5;"/><polygon fill="#181818" points="1028.7363,60.2969,1034.7363,55.2969,1032.7363,60.2969,1034.7363,65.2969,1028.7363,60.2969" style="stroke:#181818;stroke-width:1;"/><text fill="#000000" font-family="sans-serif" font-size="14" lengthAdjust="spacing" textLength="169.8115" x="944.8306" y="590.3857">Chatbot Logic Container</text><ellipse cx="1032.7363" cy="609.6875" fill="#E2E2F0" rx="12" ry="12" style="stroke:#181818;stroke-width:0.5;"/><polygon fill="#181818" points="1028.7363,597.6875,1034.7363,592.6875,1032.7363,597.6875,1034.7363,602.6875,1028.7363,597.6875" style="stroke:#181818;stroke-width:1;"/><text fill="#000000" font-family="sans-serif" font-size="14" lengthAdjust="spacing" textLength="187.8857" x="1283.2236" y="101.292">Data Integration Container</text><ellipse cx="1380.1665" cy="72.2969" fill="#E2E2F0" rx="12" ry="12" style="stroke:#181818;stroke-width:0.5;"/><polygon fill="#181818" points="1376.1665,60.2969,1382.1665,55.2969,1380.1665,60.2969,1382.1665,65.2969,1376.1665,60.2969" style="stroke:#181818;stroke-width:1;"/><text fill="#000000" font-family="sans-serif" font-size="14" lengthAdjust="spacing" textLength="187.8857" x="1283.2236" y="590.3857">Data Integration Container</text><ellipse cx="1380.1665" cy="609.6875" fill="#E2E2F0" rx="12" ry="12" style="stroke:#181818;stroke-width:0.5;"/><polygon fill="#181818" points="1376.1665,597.6875,1382.1665,592.6875,1380.1665,597.6875,1382.1665,602.6875,1376.1665,597.6875" style="stroke:#181818;stroke-width:1;"/><text fill="#000000" font-family="sans-serif" font-size="14" lengthAdjust="spacing" textLength="154.2803" x="1609.123" y="101.292">Data Cache Container</text><path d="M1671.2632,52.2969 C1671.2632,42.2969 1689.2632,42.2969 1689.2632,42.2969 C1689.2632,42.2969 1707.2632,42.2969 1707.2632,52.2969 L1707.2632,78.2969 C1707.2632,88.2969 1689.2632,88.2969 1689.2632,88.2969 C1689.2632,88.2969 1671.2632,88.2969 1671.2632,78.2969 L1671.2632,52.2969 " fill="#E2E2F0" style="stroke:#181818;stroke-width:1.5;"/><path d="M1671.2632,52.2969 C1671.2632,62.2969 1689.2632,62.2969 1689.2632,62.2969 C1689.2632,62.2969 1707.2632,62.2969 1707.2632,52.2969 " fill="none" style="stroke:#181818;stroke-width:1.5;"/><text fill="#000000" font-family="sans-serif" font-size="14" lengthAdjust="spacing" textLength="154.2803" x="1609.123" y="590.3857">Data Cache Container</text><path d="M1671.2632,603.6875 C1671.2632,593.6875 1689.2632,593.6875 1689.2632,593.6875 C1689.2632,593.6875 1707.2632,593.6875 1707.2632,603.6875 L1707.2632,629.6875 C1707.2632,639.6875 1689.2632,639.6875 1689.2632,639.6875 C1689.2632,639.6875 1671.2632,639.6875 1671.2632,629.6875 L1671.2632,603.6875 " fill="#E2E2F0" style="stroke:#181818;stroke-width:1.5;"/><path d="M1671.2632,603.6875 C1671.2632,613.6875 1689.2632,613.6875 1689.2632,613.6875 C1689.2632,613.6875 1707.2632,613.6875 1707.2632,603.6875 " fill="none" style="stroke:#181818;stroke-width:1.5;"/><text fill="#000000" font-family="sans-serif" font-size="14" lengthAdjust="spacing" textLength="150.9785" x="1779.4033" y="101.292">Trail Status Database</text><path d="M1839.8926,52.2969 C1839.8926,42.2969 1857.8926,42.2969 1857.8926,42.2969 C1857.8926,42.2969 1875.8926,42.2969 1875.8926,52.2969 L1875.8926,78.2969 C1875.8926,88.2969 1857.8926,88.2969 1857.8926,88.2969 C1857.8926,88.2969 1839.8926,88.2969 1839.8926,78.2969 L1839.8926,52.2969 " fill="#E2E2F0" style="stroke:#181818;stroke-width:1.5;"/><path d="M1839.8926,52.2969 C1839.8926,62.2969 1857.8926,62.2969 1857.8926,62.2969 C1857.8926,62.2969 1875.8926,62.2969 1875.8926,52.2969 " fill="none" style="stroke:#181818;stroke-width:1.5;"/><text fill="#000000" font-family="sans-serif" font-size="14" lengthAdjust="spacing" textLength="150.9785" x="1779.4033" y="590.3857">Trail Status Database</text><path d="M1839.8926,603.6875 C1839.8926,593.6875 1857.8926,593.6875 1857.8926,593.6875 C1857.8926,593.6875 1875.8926,593.6875 1875.8926,603.6875 L1875.8926,629.6875 C1875.8926,639.6875 1857.8926,639.6875 1857.8926,639.6875 C1857.8926,639.6875 1839.8926,639.6875 1839.8926,629.6875 L1839.8926,603.6875 " fill="#E2E2F0" style="stroke:#181818;stroke-width:1.5;"/><path d="M1839.8926,603.6875 C1839.8926,613.6875 1857.8926,613.6875 1857.8926,613.6875 C1857.8926,613.6875 1875.8926,613.6875 1875.8926,603.6875 " fill="none" style="stroke:#181818;stroke-width:1.5;"/><rect fill="#FFFFFF" height="424.6641" style="stroke:#181818;stroke-width:1;" width="10" x="469.1279" y="135.7266"/><rect fill="#FFFFFF" height="366.3984" style="stroke:#181818;stroke-width:1;" width="10" x="723.9565" y="164.8594"/><rect fill="#FFFFFF" height="308.1328" style="stroke:#181818;stroke-width:1;" width="10" x="1027.7363" y="193.9922"/><rect fill="#FFFFFF" height="249.8672" style="stroke:#181818;stroke-width:1;" width="10" x="1375.1665" y="223.125"/><rect fill="#FFFFFF" height="29.1328" style="stroke:#181818;stroke-width:1;" width="10" x="1852.8926" y="349.4609"/><polygon fill="#181818" points="457.1279,131.7266,467.1279,135.7266,457.1279,139.7266,461.1279,135.7266" style="stroke:#181818;stroke-width:1;"/><line style="stroke:#181818;stroke-width:1;" x1="80.1611" x2="463.1279" y1="135.7266" y2="135.7266"/><text fill="#000000" font-family="sans-serif" font-size="13" lengthAdjust="spacing" textLength="369.9668" x="87.1611" y="130.6606">Request Trail Status (e.g., "Is PCT open near Mt. Hood?")</text><polygon fill="#181818" points="711.9565,160.8594,721.9565,164.8594,711.9565,168.8594,715.9565,164.8594" style="stroke:#181818;stroke-width:1;"/><line style="stroke:#181818;stroke-width:1;" x1="479.1279" x2="717.9565" y1="164.8594" y2="164.8594"/><text fill="#000000" font-family="sans-serif" font-size="13" lengthAdjust="spacing" textLength="187.9351" x="486.1279" y="159.7935">API Request: Get Trail Status</text><polygon fill="#181818" points="1015.7363,189.9922,1025.7363,193.9922,1015.7363,197.9922,1019.7363,193.9922" style="stroke:#181818;stroke-width:1;"/><line style="stroke:#181818;stroke-width:1;" x1="733.9565" x2="1021.7363" y1="193.9922" y2="193.9922"/><text fill="#000000" font-family="sans-serif" font-size="13" lengthAdjust="spacing" textLength="270.8545" x="740.9565" y="188.9263">Process Conversation (Trail Status Intent)</text><polygon fill="#181818" points="1363.1665,219.125,1373.1665,223.125,1363.1665,227.125,1367.1665,223.125" style="stroke:#181818;stroke-width:1;"/><line style="stroke:#181818;stroke-width:1;" x1="1037.7363" x2="1369.1665" y1="223.125" y2="223.125"/><text fill="#000000" font-family="sans-serif" font-size="13" lengthAdjust="spacing" textLength="318.4302" x="1044.7363" y="218.0591">Data Request: Trail Status for PCT near Mt. Hood</text><polygon fill="#181818" points="1677.2632,248.2578,1687.2632,252.2578,1677.2632,256.2578,1681.2632,252.2578" style="stroke:#181818;stroke-width:1;"/><line style="stroke:#181818;stroke-width:1;" x1="1385.1665" x2="1683.2632" y1="252.2578" y2="252.2578"/><text fill="#000000" font-family="sans-serif" font-size="13" lengthAdjust="spacing" textLength="273.0063" x="1392.1665" y="247.1919">Check Cache: Trail Status (PCT, Mt. Hood)</text><path d="M1273.2236,267.2578 L1337.6665,267.2578 L1337.6665,274.3906 L1327.6665,284.3906 L1273.2236,284.3906 L1273.2236,267.2578 " fill="#EEEEEE" style="stroke:#000000;stroke-width:1.5;"/><rect fill="none" height="177.6016" style="stroke:#000000;stroke-width:1.5;" width="673.1582" x="1273.2236" y="267.2578"/><text fill="#000000" font-family="sans-serif" font-size="13" font-weight="bold" lengthAdjust="spacing" textLength="19.4429" x="1288.2236" y="280.3247">alt</text><text fill="#000000" font-family="sans-serif" font-size="11" font-weight="bold" lengthAdjust="spacing" textLength="69.4268" x="1352.6665" y="279.4683">[Cache Hit]</text><polygon fill="#181818" points="1396.1665,301.5234,1386.1665,305.5234,1396.1665,309.5234,1392.1665,305.5234" style="stroke:#181818;stroke-width:1;"/><line style="stroke:#181818;stroke-width:1;stroke-dasharray:2.0,2.0;" x1="1390.1665" x2="1688.2632" y1="305.5234" y2="305.5234"/><text fill="#000000" font-family="sans-serif" font-size="13" lengthAdjust="spacing" textLength="162.0176" x="1402.1665" y="300.4575">Cached Trail Status Data</text><line style="stroke:#000000;stroke-width:1;stroke-dasharray:2.0,2.0;" x1="1273.2236" x2="1946.3818" y1="314.5234" y2="314.5234"/><text fill="#000000" font-family="sans-serif" font-size="11" font-weight="bold" lengthAdjust="spacing" textLength="146.6577" x="1278.2236" y="324.7339">[Cache Miss or Expired]</text><polygon fill="#181818" points="1840.8926,345.4609,1850.8926,349.4609,1840.8926,353.4609,1844.8926,349.4609" style="stroke:#181818;stroke-width:1;"/><line style="stroke:#181818;stroke-width:1;" x1="1385.1665" x2="1846.8926" y1="349.4609" y2="349.4609"/><text fill="#000000" font-family="sans-serif" font-size="13" lengthAdjust="spacing" textLength="248.2822" x="1392.1665" y="344.395">Query Trail Status API (PCT, Mt. Hood)</text><polygon fill="#181818" points="1396.1665,374.5938,1386.1665,378.5938,1396.1665,382.5938,1392.1665,378.5938" style="stroke:#181818;stroke-width:1;"/><line style="stroke:#181818;stroke-width:1;stroke-dasharray:2.0,2.0;" x1="1390.1665" x2="1856.8926" y1="378.5938" y2="378.5938"/><text fill="#000000" font-family="sans-serif" font-size="13" lengthAdjust="spacing" textLength="109.2051" x="1402.1665" y="373.5278">Trail Status Data</text><polygon fill="#181818" points="1677.2632,403.7266,1687.2632,407.7266,1677.2632,411.7266,1681.2632,407.7266" style="stroke:#181818;stroke-width:1;"/><line style="stroke:#181818;stroke-width:1;" x1="1385.1665" x2="1683.2632" y1="407.7266" y2="407.7266"/><text fill="#000000" font-family="sans-serif" font-size="13" lengthAdjust="spacing" textLength="280.0967" x="1392.1665" y="402.6606">Update Cache: Trail Status (PCT, Mt. Hood)</text><polygon fill="#181818" points="1396.1665,432.8594,1386.1665,436.8594,1396.1665,440.8594,1392.1665,436.8594" style="stroke:#181818;stroke-width:1;"/><line style="stroke:#181818;stroke-width:1;stroke-dasharray:2.0,2.0;" x1="1390.1665" x2="1688.2632" y1="436.8594" y2="436.8594"/><text fill="#000000" font-family="sans-serif" font-size="13" lengthAdjust="spacing" textLength="84.335" x="1402.1665" y="431.7935">Confirmation</text><polygon fill="#181818" points="1048.7363,468.9922,1038.7363,472.9922,1048.7363,476.9922,1044.7363,472.9922" style="stroke:#181818;stroke-width:1;"/><line style="stroke:#181818;stroke-width:1;stroke-dasharray:2.0,2.0;" x1="1042.7363" x2="1379.1665" y1="472.9922" y2="472.9922"/><text fill="#000000" font-family="sans-serif" font-size="13" lengthAdjust="spacing" textLength="215.9092" x="1054.7363" y="467.9263">Data Response: Trail Status Data</text><polygon fill="#181818" points="490.1279,498.125,480.1279,502.125,490.1279,506.125,486.1279,502.125" style="stroke:#181818;stroke-width:1;"/><line style="stroke:#181818;stroke-width:1;" x1="484.1279" x2="1031.7363" y1="502.125" y2="502.125"/><text fill="#000000" font-family="sans-serif" font-size="13" lengthAdjust="spacing" textLength="524.6084" x="496.1279" y="497.0591">Generate User Response (e.g., "Yes, the PCT near Mt. Hood is currently open...")</text><polygon fill="#181818" points="490.1279,527.2578,480.1279,531.2578,490.1279,535.2578,486.1279,531.2578" style="stroke:#181818;stroke-width:1;"/><line style="stroke:#181818;stroke-width:1;stroke-dasharray:2.0,2.0;" x1="484.1279" x2="727.9565" y1="531.2578" y2="531.2578"/><text fill="#000000" font-family="sans-serif" font-size="13" lengthAdjust="spacing" textLength="220.8286" x="496.1279" y="526.1919">API Response (Chatbot Response)</text><polygon fill="#181818" points="91.1611,556.3906,81.1611,560.3906,91.1611,564.3906,87.1611,560.3906" style="stroke:#181818;stroke-width:1;"/><line style="stroke:#181818;stroke-width:1;stroke-dasharray:2.0,2.0;" x1="85.1611" x2="473.1279" y1="560.3906" y2="560.3906"/><text fill="#000000" font-family="sans-serif" font-size="13" lengthAdjust="spacing" textLength="170.8853" x="97.1611" y="555.3247">Display Chatbot Response</text><!--SRC=[ZLJ1Rjim3BthAmYV6Y3r1_ZGOKkwr40BP6k3OQT0iPbKc2kv4fqjVpzAjkF8ph3c4fZaUoGVITNIaYfKBJN1ng45wI3vQYmwWcUqHrLWi2TYPnfTIdk29CJbcj3k9RiNHfDKccCyU9EBWWtML91yNkUmaeI_vMaKnPxjwiSGkNYLj3C4Z-QWYb5ivzi6tm1PIfAXYeELf8mUeRnxU-4M9Hjsqc67NCZY5QzXWkCY-iLALS4pIMhQ26yEuS6pNNuHWXHLo7gzDwXPaQMIdFKjWmYRw_T6sPCGGR_REvOgW-yUmrf7aJUO7j8v9Bc3zU85J8qQD4eBJvJ2Wp7bfsGcX2n87LbTB_aczuIjgfd_xuapM67CFk2w8OZstnD4KcUmjgP0vxnAHxIkbVbcr1IXfjb06azBH9y-nNWkMR0CvKRiUsE30b7pGwx9ZCNOSiuOfffnTLZyWkuZrfpppCyvlBmLTKloe4W0_mOYkBtQIV2LCDaOWHLlKejyKYmejtN_frOMou5uL7M_N1byQv2lBYBr0nuNx8dEofnNqrlxZtzKFItNWqgyJlO_XJTr6TRW0n9_J5EZzyg-jVD5NLwRyNHpkvrojT4EhxKeBlgRhj5aQ_sfhf3VYN1l_dvxylEn_aGt1-8-9WiBoa7HMCk7Kft2DQTfwY_ueeRuRFgBx3Atzzpdwz_AtZAxvEbkshy77ioLiXZArPL_WaV0g81D_XS0]--></g></svg>